
<global>
amp_veltrack=0
ampeg_attack=0.01
ampeg_release=0.65
</global>

<group>
group_label=PP
xf_cccurve=gain
xfin_hicc1=42
xfout_hicc1=85
xfout_locc1=42

<region>
end=367398
hikey=g6
hivel=127
lokey=f#6
loop_end=282472
loop_mode=loop_continuous
loop_start=100653
loop_xfade=45454
lovel=0
offset=10749
pitch_keycenter=g6
release_start=316408
release_xfade=14513
sample=Violins1_nonvib_PP_G6.opus
</region>

<region>
end=361716
hikey=g5
hivel=127
lokey=f#5
loop_end=282472
loop_mode=loop_continuous
loop_start=100653
loop_xfade=45454
lovel=0
offset=13573
pitch_keycenter=g5
release_start=307986
release_xfade=14513
sample=Violins1_nonvib_PP_G5.opus
</region>

<region>
hikey=g4
hivel=127
lokey=f#4
loop_end=282472
loop_mode=loop_continuous
loop_start=100653
loop_xfade=45454
lovel=0
offset=11732
pitch_keycenter=g4
release_start=303088
release_xfade=11749
sample=Violins1_nonvib_PP_G4.opus
</region>

<region>
hivel=127
key=g3
loop_end=271367
loop_mode=loop_continuous
loop_start=96696
loop_xfade=43667
lovel=0
release_start=284468
release_xfade=11027
sample=Violins1_nonvib_PP_G3.opus
</region>

<region>
end=366103
hikey=f6
hivel=127
lokey=e6
loop_end=281798
loop_mode=loop_continuous
loop_start=100413
loop_xfade=45346
lovel=0
offset=12647
pitch_keycenter=f6
release_start=307960
release_xfade=14477
sample=Violins1_nonvib_PP_F6.opus
</region>

<region>
end=368440
hikey=f5
hivel=127
lokey=e5
loop_end=282472
loop_mode=loop_continuous
loop_start=100653
loop_xfade=45454
lovel=0
offset=13573
pitch_keycenter=f5
release_start=307616
release_xfade=14513
sample=Violins1_nonvib_PP_F5.opus
</region>

<region>
end=338050
hikey=f4
hivel=127
lokey=e4
loop_end=281322
loop_mode=loop_continuous
loop_start=100243
loop_xfade=45269
lovel=0
offset=7783
pitch_keycenter=f4
release_start=302412
release_xfade=14445
sample=Violins1_nonvib_PP_F4.opus
</region>

<region>
hikey=d#6
hivel=127
lokey=d6
loop_end=282472
loop_mode=loop_continuous
loop_start=100653
loop_xfade=45454
lovel=0
offset=12718
pitch_keycenter=d#6
release_start=315285
release_xfade=12221
sample=Violins1_nonvib_PP_D#6.opus
</region>

<region>
hikey=d#5
hivel=127
lokey=d5
loop_end=282472
loop_mode=loop_continuous
loop_start=100653
loop_xfade=45454
lovel=0
offset=10924
pitch_keycenter=d#5
release_start=313577
release_xfade=12626
sample=Violins1_nonvib_PP_D#5.opus
</region>

<region>
hikey=d#4
hivel=127
lokey=d4
loop_end=272116
loop_mode=loop_continuous
loop_start=96963
loop_xfade=43788
lovel=0
pitch_keycenter=d#4
release_start=295704
release_xfade=11462
sample=Violins1_nonvib_PP_D#4.opus
</region>

<region>
hikey=c#6
hivel=127
lokey=c6
loop_end=281983
loop_mode=loop_continuous
loop_start=100479
loop_xfade=45376
lovel=0
offset=12696
pitch_keycenter=c#6
release_start=288679
release_xfade=11190
sample=Violins1_nonvib_PP_C#6.opus
</region>

<region>
hikey=c#5
hivel=127
lokey=c5
loop_end=282112
loop_mode=loop_continuous
loop_start=100525
loop_xfade=45396
lovel=0
offset=10951
pitch_keycenter=c#5
release_start=311720
release_xfade=12083
sample=Violins1_nonvib_PP_C#5.opus
</region>

<region>
hikey=c#4
hivel=127
lokey=c4
loop_end=269625
loop_mode=loop_continuous
loop_start=96075
loop_xfade=43387
lovel=0
pitch_keycenter=c#4
release_start=293773
release_xfade=11388
sample=Violins1_nonvib_PP_C#4.opus
</region>

<region>
end=370680
hikey=E7
hivel=127
lokey=a#6
loop_end=282472
loop_mode=loop_continuous
loop_start=100653
loop_xfade=45454
lovel=0
offset=16917
pitch_keycenter=B6
release_start=307584
release_xfade=14513
sample=Violins1_nonvib_PP_B6.opus
</region>

<region>
hikey=b5
hivel=127
lokey=a#5
loop_end=282472
loop_mode=loop_continuous
loop_start=100653
loop_xfade=45454
lovel=0
offset=12595
pitch_keycenter=b5
release_start=306934
release_xfade=11898
sample=Violins1_nonvib_PP_B5.opus
</region>

<region>
end=361727
hikey=b4
hivel=127
lokey=a#4
loop_end=282472
loop_mode=loop_continuous
loop_start=100653
loop_xfade=45454
lovel=0
offset=14631
pitch_keycenter=b4
release_start=303448
release_xfade=14509
sample=Violins1_nonvib_PP_B4.opus
</region>

<region>
hikey=b3
hivel=127
lokey=a#3
loop_end=282472
loop_mode=loop_continuous
loop_start=100653
loop_xfade=45454
lovel=0
offset=12072
pitch_keycenter=b3
release_start=304701
release_xfade=11811
sample=Violins1_nonvib_PP_B3.opus
</region>

<region>
hikey=a6
hivel=127
lokey=g#6
loop_end=282472
loop_mode=loop_continuous
loop_start=100653
loop_xfade=45454
lovel=0
offset=10095
pitch_keycenter=a6
release_start=316143
release_xfade=12255
sample=Violins1_nonvib_PP_A6.opus
</region>

<region>
end=359677
hikey=a5
hivel=127
lokey=g#5
loop_end=282472
loop_mode=loop_continuous
loop_start=100653
loop_xfade=45454
lovel=0
offset=13573
pitch_keycenter=a5
release_start=309120
release_xfade=14513
sample=Violins1_nonvib_PP_A5.opus
</region>

<region>
hikey=a4
hivel=127
lokey=g#4
loop_end=277210
loop_mode=loop_continuous
loop_start=98778
loop_xfade=44608
lovel=0
pitch_keycenter=a4
release_start=292650
release_xfade=11344
sample=Violins1_nonvib_PP_A4.opus
</region>

<region>
hikey=a3
hivel=127
lokey=g#3
loop_end=282472
loop_mode=loop_continuous
loop_start=100653
loop_xfade=45454
lovel=0
offset=9454
pitch_keycenter=a3
release_start=298340
release_xfade=11565
sample=Violins1_nonvib_PP_A3.opus
</region>
</group>

<group>
group_label=MF
xf_cccurve=gain
xfin_hicc1=85
xfin_locc1=42
xfout_hicc1=127
xfout_locc1=85

<region>
hikey=g6
hivel=127
lokey=f#6
loop_end=271771
loop_mode=loop_continuous
loop_start=96840
loop_xfade=43732
lovel=0
pitch_keycenter=g6
release_start=301873
release_xfade=11702
sample=Violins1_nonvib_MF_G6.opus
</region>

<region>
hikey=g5
hivel=127
lokey=f#5
loop_end=269768
loop_mode=loop_continuous
loop_start=96126
loop_xfade=43410
lovel=0
pitch_keycenter=g5
release_start=292520
release_xfade=11339
sample=Violins1_nonvib_MF_G5.opus
</region>

<region>
hikey=g4
hivel=127
lokey=f#4
loop_end=269905
loop_mode=loop_continuous
loop_start=96175
loop_xfade=43432
lovel=0
pitch_keycenter=g4
release_start=292435
release_xfade=11336
sample=Violins1_nonvib_MF_G4.opus
</region>

<region>
hivel=127
key=g3
loop_end=263076
loop_mode=loop_continuous
loop_start=93742
loop_xfade=42333
lovel=0
release_start=288950
release_xfade=11201
sample=Violins1_nonvib_MF_G3.opus
</region>

<region>
hikey=f6
hivel=127
lokey=e6
loop_end=269706
loop_mode=loop_continuous
loop_start=96104
loop_xfade=43400
lovel=0
pitch_keycenter=f6
release_start=295356
release_xfade=11449
sample=Violins1_nonvib_MF_F6.opus
</region>

<region>
hikey=f5
hivel=127
lokey=e5
loop_end=270490
loop_mode=loop_continuous
loop_start=96383
loop_xfade=43526
lovel=0
pitch_keycenter=f5
release_start=293542
release_xfade=11379
sample=Violins1_nonvib_MF_F5.opus
</region>

<region>
hikey=f4
hivel=127
lokey=e4
loop_end=269427
loop_mode=loop_continuous
loop_start=96005
loop_xfade=43355
lovel=0
pitch_keycenter=f4
release_start=293247
release_xfade=11367
sample=Violins1_nonvib_MF_F4.opus
</region>

<region>
hikey=d#6
hivel=127
lokey=d6
loop_end=269822
loop_mode=loop_continuous
loop_start=96145
loop_xfade=43419
lovel=0
pitch_keycenter=d#6
release_start=303661
release_xfade=11771
sample=Violins1_nonvib_MF_D#6.opus
</region>

<region>
hikey=d#5
hivel=127
lokey=d5
loop_end=271803
loop_mode=loop_continuous
loop_start=96851
loop_xfade=43738
lovel=0
pitch_keycenter=d#5
release_start=298775
release_xfade=11581
sample=Violins1_nonvib_MF_D#5.opus
</region>

<region>
hikey=d#4
hivel=127
lokey=d4
loop_end=267309
loop_mode=loop_continuous
loop_start=95250
loop_xfade=43014
lovel=0
pitch_keycenter=d#4
release_start=288455
release_xfade=11181
sample=Violins1_nonvib_MF_D#4.opus
</region>

<region>
hikey=c#6
hivel=127
lokey=c6
loop_end=265712
loop_mode=loop_continuous
loop_start=94681
loop_xfade=42757
lovel=0
pitch_keycenter=c#6
release_start=290338
release_xfade=11254
sample=Violins1_nonvib_MF_C#6.opus
</region>

<region>
hikey=c#5
hivel=127
lokey=c5
loop_end=264956
loop_mode=loop_continuous
loop_start=94411
loop_xfade=42636
lovel=0
pitch_keycenter=c#5
release_start=283120
release_xfade=10975
sample=Violins1_nonvib_MF_C#5.opus
</region>

<region>
hikey=c#4
hivel=127
lokey=c4
loop_end=269387
loop_mode=loop_continuous
loop_start=95991
loop_xfade=43349
lovel=0
pitch_keycenter=c#4
release_start=307546
release_xfade=11921
sample=Violins1_nonvib_MF_C#4.opus
</region>

<region>
hikey=E7
hivel=127
lokey=a#6
loop_end=264411
loop_mode=loop_continuous
loop_start=94217
loop_xfade=42548
lovel=0
pitch_keycenter=B6
release_start=290990
release_xfade=11280
sample=Violins1_nonvib_MF_B6.opus
</region>

<region>
hikey=b5
hivel=127
lokey=a#5
loop_end=270822
loop_mode=loop_continuous
loop_start=96502
loop_xfade=43580
lovel=0
pitch_keycenter=b5
release_start=300998
release_xfade=11668
sample=Violins1_nonvib_MF_B5.opus
</region>

<region>
hikey=b4
hivel=127
lokey=a#4
loop_end=261837
loop_mode=loop_continuous
loop_start=93300
loop_xfade=42134
lovel=0
pitch_keycenter=b4
release_start=291975
release_xfade=11318
sample=Violins1_nonvib_MF_B4.opus
</region>

<region>
hikey=b3
hivel=127
lokey=a#3
loop_end=266678
loop_mode=loop_continuous
loop_start=95025
loop_xfade=42913
lovel=0
pitch_keycenter=b3
release_start=296143
release_xfade=11479
sample=Violins1_nonvib_MF_B3.opus
</region>

<region>
hikey=a6
hivel=127
lokey=g#6
loop_end=266992
loop_mode=loop_continuous
loop_start=95137
loop_xfade=42963
lovel=0
pitch_keycenter=a6
release_start=298671
release_xfade=11577
sample=Violins1_nonvib_MF_A6.opus
</region>

<region>
hikey=a5
hivel=127
lokey=g#5
loop_end=270121
loop_mode=loop_continuous
loop_start=96252
loop_xfade=43467
lovel=0
pitch_keycenter=a5
release_start=296491
release_xfade=11493
sample=Violins1_nonvib_MF_A5.opus
</region>

<region>
hikey=a4
hivel=127
lokey=g#4
loop_end=253909
loop_mode=loop_continuous
loop_start=90475
loop_xfade=40858
lovel=0
pitch_keycenter=a4
release_start=273896
release_xfade=10617
sample=Violins1_nonvib_MF_A4.opus
</region>

<region>
hikey=a3
hivel=127
lokey=g#3
loop_end=271533
loop_mode=loop_continuous
loop_start=96755
loop_xfade=43694
lovel=0
pitch_keycenter=a3
release_start=293513
release_xfade=11377
sample=Violins1_nonvib_MF_A3.opus
</region>
</group>

<group>
group_label=FF
xf_cccurve=gain
xfin_hicc1=127
xfin_locc1=85
xfout_hicc1=127
xfout_locc1=127

<region>
hikey=g6
hivel=127
lokey=f#6
loop_end=272823
loop_mode=loop_continuous
loop_start=97215
loop_xfade=43902
lovel=0
pitch_keycenter=g6
release_start=308300
release_xfade=11951
sample=Violins1_nonvib_FF_G6.opus
</region>

<region>
hikey=g5
hivel=127
lokey=f#5
loop_end=272133
loop_mode=loop_continuous
loop_start=96969
loop_xfade=43791
lovel=0
pitch_keycenter=g5
release_start=309663
release_xfade=12004
sample=Violins1_nonvib_FF_G5.opus
</region>

<region>
hikey=g4
hivel=127
lokey=f#4
loop_end=274171
loop_mode=loop_continuous
loop_start=97695
loop_xfade=44119
lovel=0
pitch_keycenter=g4
release_start=310950
release_xfade=12053
sample=Violins1_nonvib_FF_G4.opus
</region>

<region>
hivel=127
key=g3
loop_end=275854
loop_mode=loop_continuous
loop_start=98295
loop_xfade=44389
lovel=0
release_start=311913
release_xfade=12091
sample=Violins1_nonvib_FF_G3.opus
</region>

<region>
hikey=f6
hivel=127
lokey=e6
loop_end=271575
loop_mode=loop_continuous
loop_start=96770
loop_xfade=43701
lovel=0
pitch_keycenter=f6
release_start=305951
release_xfade=11860
sample=Violins1_nonvib_FF_F6.opus
</region>

<region>
hikey=f5
hivel=127
lokey=e5
loop_end=273746
loop_mode=loop_continuous
loop_start=97544
loop_xfade=44050
lovel=0
pitch_keycenter=f5
release_start=310146
release_xfade=12022
sample=Violins1_nonvib_FF_F5.opus
</region>

<region>
hikey=f4
hivel=127
lokey=e4
loop_end=272668
loop_mode=loop_continuous
loop_start=97160
loop_xfade=43877
lovel=0
pitch_keycenter=f4
release_start=298803
release_xfade=11583
sample=Violins1_nonvib_FF_F4.opus
</region>

<region>
hikey=d#6
hivel=127
lokey=d6
loop_end=272521
loop_mode=loop_continuous
loop_start=97107
loop_xfade=43853
lovel=0
pitch_keycenter=d#6
release_start=311583
release_xfade=12078
sample=Violins1_nonvib_FF_D#6.opus
</region>

<region>
hikey=d#5
hivel=127
lokey=d5
loop_end=274036
loop_mode=loop_continuous
loop_start=97647
loop_xfade=44097
lovel=0
pitch_keycenter=d#5
release_start=306337
release_xfade=11875
sample=Violins1_nonvib_FF_D#5.opus
</region>

<region>
hikey=d#4
hivel=127
lokey=d4
loop_end=274264
loop_mode=loop_continuous
loop_start=97728
loop_xfade=44134
lovel=0
pitch_keycenter=d#4
release_start=310630
release_xfade=12041
sample=Violins1_nonvib_FF_D#4.opus
</region>

<region>
hikey=c#6
hivel=127
lokey=c6
loop_end=271119
loop_mode=loop_continuous
loop_start=96608
loop_xfade=43627
lovel=0
pitch_keycenter=c#6
release_start=304090
release_xfade=11787
sample=Violins1_nonvib_FF_C#6.opus
</region>

<region>
hikey=c#5
hivel=127
lokey=c5
loop_end=273515
loop_mode=loop_continuous
loop_start=97461
loop_xfade=44013
lovel=0
pitch_keycenter=c#5
release_start=309500
release_xfade=11997
sample=Violins1_nonvib_FF_C#5.opus
</region>

<region>
hikey=c#4
hivel=127
lokey=c4
loop_end=271496
loop_mode=loop_continuous
loop_start=96742
loop_xfade=43688
lovel=0
pitch_keycenter=c#4
release_start=307462
release_xfade=11918
sample=Violins1_nonvib_FF_C#4.opus
</region>

<region>
hikey=E7
hivel=127
lokey=a#6
loop_end=272906
loop_mode=loop_continuous
loop_start=97245
loop_xfade=43915
lovel=0
pitch_keycenter=B6
release_start=307313
release_xfade=11912
sample=Violins1_nonvib_FF_B6.opus
</region>

<region>
hikey=b5
hivel=127
lokey=a#5
loop_end=273125
loop_mode=loop_continuous
loop_start=97322
loop_xfade=43950
lovel=0
pitch_keycenter=b5
release_start=311774
release_xfade=12085
sample=Violins1_nonvib_FF_B5.opus
</region>

<region>
hikey=b4
hivel=127
lokey=a#4
loop_end=275180
loop_mode=loop_continuous
loop_start=98055
loop_xfade=44281
lovel=0
pitch_keycenter=b4
release_start=306426
release_xfade=11878
sample=Violins1_nonvib_FF_B4.opus
</region>

<region>
hikey=b3
hivel=127
lokey=a#3
loop_end=274867
loop_mode=loop_continuous
loop_start=97943
loop_xfade=44231
lovel=0
pitch_keycenter=b3
release_start=306352
release_xfade=11875
sample=Violins1_nonvib_FF_B3.opus
</region>

<region>
hikey=a6
hivel=127
lokey=g#6
loop_end=271871
loop_mode=loop_continuous
loop_start=96876
loop_xfade=43748
lovel=0
pitch_keycenter=a6
release_start=304552
release_xfade=11805
sample=Violins1_nonvib_FF_A6.opus
</region>

<region>
hikey=a5
hivel=127
lokey=g#5
loop_end=274163
loop_mode=loop_continuous
loop_start=97692
loop_xfade=44117
lovel=0
pitch_keycenter=a5
release_start=305392
release_xfade=11838
sample=Violins1_nonvib_FF_A5.opus
</region>

<region>
hikey=a4
hivel=127
lokey=g#4
loop_end=273058
loop_mode=loop_continuous
loop_start=97299
loop_xfade=43939
lovel=0
pitch_keycenter=a4
release_start=301346
release_xfade=11681
sample=Violins1_nonvib_FF_A4.opus
</region>

<region>
hikey=a3
hivel=127
lokey=g#3
loop_end=271922
loop_mode=loop_continuous
loop_start=96894
loop_xfade=43757
lovel=0
pitch_keycenter=a3
release_start=308007
release_xfade=11939
sample=Violins1_nonvib_FF_A3.opus
</region>
</group>